<?xml version="1.0" encoding="utf-8"?>
<!-- Generator: Adobe Illustrator 22.1.0, SVG Export Plug-In . SVG Version: 6.00 Build 0)  -->
<svg version="1.1" id="Camada_1" xmlns="http://www.w3.org/2000/svg" xmlns:xlink="http://www.w3.org/1999/xlink" x="0px" y="0px"
	 viewBox="0 0 331 331" style="enable-background:new 0 0 331 331;" xml:space="preserve">
<style type="text/css">
	.st0{fill:#FFFFFF;}
	.st1{fill:#F44336;}
</style>
<path class="st0" d="M267.4,104.9l-1.8,0.8l-1.9,0.8c-5.4,2.3-10.6,4.7-15.5,7.2c0.6,4,1,7.7,1,11.3v154.2h-32.4V132.7
	c-11.7,8.3-22.7,17.6-32.9,27.8c-31.8,31.8-54.6,71.3-66,114.3v0.2l-0.1,0.3l-0.1,0.2l-0.1,0.2l-1,2.1l-0.8,1.7H85.4V124.9
	c0-39.3,31.9-71.3,71.2-71.3h21.3c11.6,0,23.3,3,33.7,8.6c9.6,5.2,17.9,12.5,24.2,21.3c7.3-3.7,15.1-7.1,23.2-10.3l4.3-1.6l4-1.5
	v34.8H267.4z"/>
<g>
	<path class="st1" d="M207.4,99.8c-36.4,23.7-67.1,55.4-89.4,92.4V125c0-21.3,17.4-38.7,38.8-38.7h21.9
		C189.7,86.3,200,91.2,207.4,99.8z"/>
	<path class="st1" d="M166,1.6C75.2,1.6,1.6,75.2,1.6,166S75.2,330.5,166,330.5S330.5,256.8,330.5,166S256.8,1.6,166,1.6z
		 M265.6,105.7l-1.9,0.8c-5.4,2.3-10.6,4.7-15.5,7.2c0.6,4,1,7.7,1,11.3v154.2h-32.4V132.7c-11.7,8.3-22.7,17.6-32.9,27.8
		c-31.8,31.8-54.6,71.3-66,114.3v0.2l-0.1,0.3l-0.1,0.2l-0.1,0.2l-1,2.1l-0.8,1.7H85.4V124.9c0-39.3,31.9-71.3,71.2-71.3h21.3
		c11.6,0,23.3,3,33.7,8.6c9.6,5.2,17.9,12.5,24.2,21.3c7.3-3.7,15.1-7.1,23.2-10.3l4.3-1.6l4-1.5v34.8h0.1L265.6,105.7z"/>
</g>
</svg>
